<?xml version="1.0" standalone="no"?>
<!DOCTYPE svg PUBLIC "-//W3C//DTD SVG 20010904//EN"
 "http://www.w3.org/TR/2001/REC-SVG-20010904/DTD/svg10.dtd">
<svg version="1.0" xmlns="http://www.w3.org/2000/svg"
 width="700.000000pt" height="700.000000pt" viewBox="0 0 700.000000 700.000000"
 preserveAspectRatio="xMidYMid meet">
<metadata>
Created by potrace 1.14, written by Peter Selinger 2001-2017
</metadata>
<g transform="translate(0.000000,700.000000) scale(0.100000,-0.100000)"
fill="#000000" stroke="none">
<path d="M0 3500 l0 -3500 3500 0 3500 0 0 3500 0 3500 -3500 0 -3500 0 0
-3500z m2234 2674 c-215 -324 -358 -712 -405 -1099 -16 -138 -14 -446 4 -580
64 -467 251 -896 553 -1275 95 -118 309 -330 433 -429 169 -134 363 -256 566
-356 346 -170 652 -263 1043 -317 208 -28 628 -31 832 -5 255 33 541 100 749
177 45 16 84 30 86 30 18 0 -125 -258 -222 -402 -113 -168 -212 -288 -363
-439 -158 -158 -254 -237 -440 -361 -332 -221 -730 -368 -1135 -419 -129 -16
-461 -16 -590 0 -480 60 -895 230 -1293 528 -132 99 -393 353 -496 483 -346
438 -557 930 -648 1510 -20 127 -22 183 -22 455 -1 247 3 334 17 430 89 595
290 1073 640 1525 99 127 317 347 447 452 92 74 320 231 327 225 1 -2 -36 -61
-83 -133z"/>
</g>
</svg>
