<svg version="1.1" xmlns="http://www.w3.org/2000/svg" xmlns:xlink="http://www.w3.org/1999/xlink" viewBox="0 0 172 172"><g fill="none" fill-rule="nonzero" stroke="none" stroke-width="1" stroke-linecap="butt" stroke-linejoin="miter" stroke-miterlimit="10" stroke-dasharray="" stroke-dashoffset="0" font-family="none" font-weight="none" font-size="none" text-anchor="none" style="mix-blend-mode: normal"><path d="M0,172v-172h172v172z" fill="none"></path><g fill="#cccccc"><path d="M22.84375,1.34375c-9.675,0 -17.46875,7.79375 -17.46875,17.46875v40.3125c0,2.28438 1.74688,4.03125 4.03125,4.03125c2.28437,0 4.03125,-1.74687 4.03125,-4.03125v-40.3125c0,-5.24062 4.16562,-9.40625 9.40625,-9.40625h64.36615c2.55313,0 4.8375,0.94063 6.71875,2.6875l9.40625,9.40625h-47.97345c-7.525,0 -14.24218,4.83803 -16.52655,11.9599l-15.05157,45.01563c-1.47812,4.56875 -2.28333,9.2724 -2.28333,13.97552v60.73645c0,9.675 7.79375,17.46875 17.46875,17.46875h53.75c9.675,0 17.46875,-7.79375 17.46875,-17.46875v-60.6026c0,-3.89688 0.6724,-7.79375 1.88178,-11.42187l12.2276,-36.55157c1.74688,-5.375 0.93958,-11.15208 -2.4198,-15.72083c-1.20938,-1.6125 -2.5526,-2.95625 -4.1651,-4.03125l-18.27447,-18.40833c-3.225,-3.225 -7.65885,-5.1073 -12.2276,-5.1073zM55.36145,29.5625h52.2724c1.74688,0 3.49532,0.5375 4.97345,1.34375l0.13385,0.13385c0.26875,0.26875 0.6703,0.53698 1.07343,0.80573c0.5375,0.5375 1.0771,1.07657 1.48022,1.61407c1.74688,2.41875 2.28438,5.5078 1.34375,8.46405l-12.23022,36.55157c-0.40313,1.075 -0.67083,2.28385 -0.93958,3.49322h-72.2948c0.13438,-0.26875 0.13595,-0.53645 0.27032,-0.93958l15.04895,-45.01562c1.34375,-3.89688 4.83698,-6.45105 8.86823,-6.45105zM78.20782,43.61939c-1.58101,0.11968 -2.99194,1.12749 -3.49585,2.73999l-5.375,16.125c-0.67187,2.15 0.5375,4.43542 2.6875,5.1073c0.40313,0.13438 0.80678,0.2677 1.2099,0.2677c1.74688,0 3.22605,-1.07447 3.76355,-2.82135l5.375,-16.125c0.67188,-2.15 -0.40365,-4.43543 -2.55365,-5.1073c-0.5375,-0.16797 -1.08445,-0.22623 -1.61145,-0.18634zM154.76745,84.45679c-0.76451,-0.04015 -1.54636,0.15012 -2.25183,0.60364l-13.84167,8.3302c-1.20937,0.80625 -2.01562,2.14947 -2.01562,3.49322c0,0.67188 0.1349,1.47812 0.53802,2.01563c1.20937,1.88125 3.76407,2.41875 5.64532,1.34375l13.83905,-8.3302c1.88125,-1.20938 2.55312,-3.6276 1.34375,-5.50885c-0.75586,-1.17578 -1.98282,-1.88046 -3.25702,-1.94739zM29.69635,90.03125h72.5625c-0.13437,0.80625 -0.13385,1.61303 -0.13385,2.55365v60.6026c0,5.24062 -4.16562,9.40625 -9.40625,9.40625h-53.75c-5.24063,0 -9.40625,-4.16563 -9.40625,-9.40625v-60.6026c0,-0.80625 -0.00053,-1.61303 0.13385,-2.55365zM65.84375,108.84375c-9.675,0 -17.46875,7.79375 -17.46875,17.46875c0,9.675 7.79375,17.46875 17.46875,17.46875c9.675,0 17.46875,-7.79375 17.46875,-17.46875c0,-9.675 -7.79375,-17.46875 -17.46875,-17.46875zM65.84375,116.90625c5.24062,0 9.40625,4.16562 9.40625,9.40625c0,5.24062 -4.16563,9.40625 -9.40625,9.40625c-5.24063,0 -9.40625,-4.16563 -9.40625,-9.40625c0,-5.24063 4.16562,-9.40625 9.40625,-9.40625zM147.8125,122.1474c-2.28438,0 -4.03125,1.74687 -4.03125,4.03125c0,2.28438 1.74687,4.03125 4.03125,4.03125h18.8125c2.28438,0 4.03125,-1.74687 4.03125,-4.03125c0,-2.28438 -1.74687,-4.03125 -4.03125,-4.03125zM140.55311,151.64428c-1.30176,0.06693 -2.55103,0.77161 -3.2229,1.94739c-0.40312,0.67188 -0.5354,1.34375 -0.5354,2.01563c-0.13438,1.34375 0.66978,2.68698 1.87915,3.49323l13.84167,8.3302c1.88125,1.20937 4.43385,0.5375 5.50885,-1.34375c1.20937,-1.88125 0.5375,-4.43385 -1.34375,-5.50885l-13.83905,-8.3302c-0.70547,-0.45352 -1.50751,-0.64379 -2.28857,-0.60364z"></path></g></g></svg>