<svg width="79" height="59" viewBox="0 0 79 59" fill="none" xmlns="http://www.w3.org/2000/svg">
<path d="M0.751251 11.32C0.751251 9.66666 1.04458 8.14666 1.63125 6.76C2.21792 5.37333 3.01792 4.2 4.03125 3.24C5.04458 2.22666 6.24458 1.45333 7.63125 0.919997C9.01792 0.333332 10.4846 0.039999 12.0313 0.039999C13.5779 0.039999 15.0446 0.306665 16.4313 0.839998C17.8179 1.32 19.0179 2.06667 20.0313 3.08C21.0446 4.04 21.8446 5.21333 22.4313 6.6C23.0179 7.98666 23.3113 9.56 23.3113 11.32C23.3113 13.08 23.0179 14.6533 22.4313 16.04C21.8446 17.4267 21.0446 18.6267 20.0313 19.64C19.0179 20.6 17.8179 21.3467 16.4313 21.88C15.0446 22.36 13.5779 22.6 12.0313 22.6C10.4846 22.6 9.01792 22.36 7.63125 21.88C6.24458 21.3467 5.04458 20.6 4.03125 19.64C3.01792 18.6267 2.21792 17.4267 1.63125 16.04C1.04458 14.6533 0.751251 13.08 0.751251 11.32ZM5.79125 11.32C5.79125 13.3467 6.40458 14.9467 7.63125 16.12C8.91125 17.24 10.3779 17.8 12.0313 17.8C13.6846 17.8 15.1246 17.24 16.3513 16.12C17.6313 14.9467 18.2713 13.3467 18.2713 11.32C18.2713 9.29333 17.6313 7.72 16.3513 6.6C15.1246 5.42666 13.6846 4.84 12.0313 4.84C10.3779 4.84 8.91125 5.42666 7.63125 6.6C6.40458 7.72 5.79125 9.29333 5.79125 11.32ZM38.48 17H48V9.08L54.24 7.32V17H75.6V22.36H54.24V41.24C54.24 45.1333 55.1733 48.0133 57.04 49.88C58.96 51.7467 61.68 52.68 65.2 52.68C67.6 52.68 69.68 52.2267 71.44 51.32C73.2533 50.4133 74.88 49.4267 76.32 48.36L78.4 53.08C76.5333 54.5733 74.2933 55.7733 71.68 56.68C69.12 57.5867 66.48 58.04 63.76 58.04C61.6267 58.04 59.6 57.72 57.68 57.08C55.8133 56.4933 54.16 55.56 52.72 54.28C51.28 53 50.1333 51.3733 49.28 49.4C48.4267 47.3733 48 44.9733 48 42.2V22.36H38.48V17Z" fill="#CCCCCC"/>
</svg>
