<svg version="1.1" xmlns="http://www.w3.org/2000/svg" xmlns:xlink="http://www.w3.org/1999/xlink" viewBox="0 0 172 172"><g fill="none" fill-rule="nonzero" stroke="none" stroke-width="1" stroke-linecap="butt" stroke-linejoin="miter" stroke-miterlimit="10" stroke-dasharray="" stroke-dashoffset="0" font-family="none" font-weight="none" font-size="none" text-anchor="none" style="mix-blend-mode: normal"><path d="M0,172v-172h172v172z" fill="none"></path><g fill="#cccccc"><path d="M86,17.2c-37.92867,0 -68.8,30.87133 -68.8,68.8c0,37.92867 30.87133,68.8 68.8,68.8c37.92867,0 68.8,-30.87133 68.8,-68.8c0,-23.73438 -12.05195,-44.71912 -30.39114,-57.08698l6.57317,-8.43203l-27.78203,-1.00781l8.01771,26.39349l6.09167,-7.82734c14.14118,9.24449 23.956,24.50679 25.71041,42.23854c-3.03904,0.16645 -5.4184,2.67854 -5.41979,5.72214c0.00232,3.05592 2.40111,5.57292 5.45339,5.72214c-2.67683,27.14387 -24.18738,48.65442 -51.33125,51.33125c-0.14921,-3.05228 -2.66621,-5.45106 -5.72214,-5.45339c-3.05592,0.00232 -5.57292,2.40111 -5.72214,5.45339c-27.14387,-2.67683 -48.65442,-24.18738 -51.33125,-51.33125c3.05228,-0.14921 5.45106,-2.66621 5.45339,-5.72214c-0.00797,-3.04748 -2.39863,-5.55619 -5.44219,-5.71094c2.70158,-26.98721 24.35527,-47.73201 51.40963,-50.4914c0.55646,2.91575 3.24623,4.92475 6.20002,4.63083c2.95378,-0.29392 5.19491,-2.79359 5.16587,-5.76182v-5.73333c-0.00032,-3.1663 -2.56703,-5.73302 -5.73333,-5.73333zM69.37109,66.84036c-9.7524,0 -15.77786,7.38015 -15.77786,19.29401c0,5.33773 1.28077,9.87943 3.72891,13.10156c2.62013,3.82987 6.84963,5.9013 12.01536,5.9013c8.514,0 14.54609,-5.41943 14.54609,-13.07917c0,-6.90867 -5.09057,-12.01536 -11.97057,-12.01536c-4.20253,-0.00001 -7.49284,1.87982 -9.10391,5.28541h-0.48151c-0.32107,-6.7252 2.52643,-11.36588 7.00989,-11.36588c2.47107,0 4.45999,1.28579 5.03906,3.28099h9.04792c-0.95747,-6.1232 -6.72619,-10.40286 -14.05339,-10.40286zM105.45078,66.84036c-9.374,0 -15.27396,7.01859 -15.27396,19.07005c0,12.03427 5.81969,19.25468 15.27396,19.26042c9.41987,0 15.26276,-7.24389 15.26276,-19.23802c0,-12.0916 -5.91743,-19.09245 -15.26276,-19.09245zM105.45078,73.93984c3.526,0 5.89011,3.97831 5.89011,11.97058c0,8.0324 -2.36411,12.13854 -5.89011,12.13854c-3.526,0.00001 -5.8789,-4.10614 -5.8789,-12.13854c0,-7.99227 2.3529,-11.97058 5.8789,-11.97058zM39.7862,75.89948l2.19479,12.56407h5.97969l-1.80287,-12.56407zM69.25911,86.66067c3.27373,0 5.74453,2.45521 5.74453,5.67735c0,3.1992 -2.5224,5.68854 -5.74453,5.68854c-3.22213,0 -5.72214,-2.5224 -5.72214,-5.74453c0,-3.17053 2.47134,-5.62136 5.72214,-5.62136z"></path></g></g></svg>